<?xml version="1.0" standalone="no"?>
<!DOCTYPE svg PUBLIC "-//W3C//DTD SVG 20010904//EN"
 "http://www.w3.org/TR/2001/REC-SVG-20010904/DTD/svg10.dtd">
<svg version="1.0" xmlns="http://www.w3.org/2000/svg"
 width="1108.000000pt" height="947.000000pt" viewBox="0 0 1108.000000 947.000000"
 preserveAspectRatio="xMidYMid meet">

<g transform="translate(0.000000,947.000000) scale(0.100000,-0.100000)"
fill="#000000" stroke="none">
<path d="M4290 6730 l0 -460 1210 0 1210 0 0 460 0 460 -1210 0 -1210 0 0
-460z m606 145 l28 -94 106 -3 105 -3 -82 -59 c-46 -33 -83 -62 -83 -66 0 -3
13 -46 30 -95 16 -49 28 -90 25 -93 -2 -2 -36 19 -75 47 -39 29 -77 54 -85 57
-7 3 -48 -20 -90 -51 -42 -31 -78 -55 -80 -53 -2 2 9 46 26 97 16 52 26 97 22
101 -4 3 -42 31 -83 61 l-74 54 104 5 104 5 30 93 c17 50 33 92 37 92 3 0 19
-43 35 -95z m1339 -4 l29 -90 104 -3 105 -3 -82 -58 c-44 -33 -81 -64 -81 -71
0 -7 13 -51 29 -99 17 -48 27 -87 23 -87 -4 0 -41 25 -82 55 -41 30 -78 55
-83 55 -4 0 -42 -25 -83 -56 -42 -30 -78 -53 -81 -50 -3 3 9 46 26 97 17 51
30 93 28 94 -1 1 -38 29 -82 61 l-80 59 103 5 104 5 29 93 c17 51 33 90 37 88
4 -3 21 -45 37 -95z"/>
<path d="M3530 5983 c0 -4 52 -76 115 -160 l116 -152 -116 -154 c-63 -85 -115
-157 -115 -160 0 -4 140 -7 310 -7 l310 0 0 320 0 320 -310 0 c-170 0 -310 -3
-310 -7z"/>
<path d="M6850 5670 l0 -320 310 0 c171 0 310 3 310 7 0 3 -52 75 -115 160
l-115 153 115 153 c63 85 115 157 115 160 0 4 -139 7 -310 7 l-310 0 0 -320z"/>
<path d="M771 3479 c-77 -13 -184 -52 -249 -91 -77 -44 -198 -168 -245 -248
-65 -113 -89 -205 -95 -362 -5 -169 11 -255 73 -383 94 -194 242 -314 460
-376 67 -19 104 -23 220 -23 162 1 250 20 374 81 93 46 215 161 255 241 15 30
26 56 24 57 -2 2 -87 51 -188 110 -166 94 -186 103 -195 88 -5 -10 -33 -41
-61 -69 -60 -61 -119 -84 -214 -84 -55 0 -78 6 -129 31 -66 33 -98 68 -133
145 -29 66 -32 204 -4 284 26 75 103 151 171 170 135 38 285 -12 341 -115 11
-21 25 -35 34 -33 28 5 369 203 370 214 0 23 -83 138 -138 191 -63 60 -198
132 -297 159 -72 19 -296 27 -374 13z"/>
<path d="M2105 3426 c-211 -504 -559 -1358 -563 -1378 l-4 -28 250 0 250 0 33
95 32 95 269 0 c162 0 268 -4 268 -9 0 -6 14 -48 31 -95 l31 -86 250 0 251 0
-6 28 c-4 15 -134 338 -291 717 l-284 690 -252 3 -251 2 -14 -34z m329 -653
c33 -93 61 -174 64 -180 3 -10 -26 -13 -127 -13 -72 0 -131 2 -131 5 0 15 124
355 129 355 4 0 33 -75 65 -167z"/>
<path d="M3918 2998 c-3 -444 -4 -464 -23 -498 -29 -50 -93 -80 -170 -80 -102
0 -185 59 -202 143 -3 15 -8 27 -11 27 -3 0 -92 -48 -199 -106 l-193 -105 16
-37 c68 -166 202 -277 394 -329 98 -26 338 -23 443 5 203 55 328 178 383 377
15 51 18 132 22 563 l4 502 -231 0 -230 0 -3 -462z"/>
<path d="M4632 2752 c-161 -390 -292 -714 -292 -720 0 -9 62 -12 251 -10 l252
3 32 90 33 90 265 3 265 2 31 -85 c17 -47 31 -90 31 -96 0 -5 100 -9 251 -9
l251 0 -4 28 c-2 16 -132 340 -289 720 l-284 692 -251 0 -251 0 -291 -708z
m612 6 l63 -178 -133 0 -133 0 55 158 c79 222 77 217 81 207 2 -6 32 -90 67
-187z"/>
<path d="M6090 2740 l0 -720 230 0 230 0 2 342 3 341 148 -197 c128 -170 151
-197 172 -194 18 2 60 51 170 197 l145 194 0 -341 0 -342 230 0 230 0 0 720 0
720 -188 0 -187 0 -199 -265 c-109 -146 -201 -265 -205 -265 -4 0 -96 119
-204 265 l-197 265 -190 0 -190 0 0 -720z"/>
<path d="M8017 2763 c-158 -384 -287 -708 -287 -721 l0 -22 247 2 247 3 32 90
32 90 265 3 265 2 16 -42 c9 -24 24 -65 34 -93 l18 -50 247 -3 247 -2 0 22 c0
12 -129 336 -287 720 l-288 698 -251 0 -250 0 -287 -697z m601 -181 c-38 -2
-97 -2 -132 0 l-63 3 66 186 66 186 65 -186 66 -186 -68 -3z"/>
<path d="M9460 2741 l0 -721 230 0 230 0 0 210 0 210 93 0 92 0 135 -210 135
-209 238 -1 c230 0 237 1 237 20 0 11 -70 121 -156 246 -144 207 -155 227
-138 237 10 6 42 32 70 59 189 178 193 535 9 722 -60 61 -116 95 -205 128 -64
22 -74 23 -517 26 l-453 3 0 -720z m786 303 c97 -46 81 -195 -24 -224 -20 -5
-97 -10 -169 -10 l-133 0 0 125 0 125 146 0 c114 0 153 -4 180 -16z"/>
</g>
</svg>
